<?xml version="1.0" encoding="UTF-8" standalone="no"?>
<!DOCTYPE svg PUBLIC "-//W3C//DTD SVG 1.1//EN"
 "http://www.w3.org/Graphics/SVG/1.1/DTD/svg11.dtd">
<!-- Generated by graphviz version 5.0.0 (20220707.1540)
 -->
<!-- Title: dependencies Pages: 1 -->
<svg width="5439pt" height="247pt"
 viewBox="0.00 0.00 5439.00 246.80" xmlns="http://www.w3.org/2000/svg" xmlns:xlink="http://www.w3.org/1999/xlink">
<g id="graph0" class="graph" transform="scale(1 1) rotate(0) translate(4 242.8)">
<title>dependencies</title>
<polygon fill="white" stroke="transparent" points="-4,4 -4,-242.8 5435,-242.8 5435,4 -4,4"/>
<text text-anchor="middle" x="2715.5" y="-8.2" font-family="sans-serif" font-size="14.00">dependencies</text>
<g id="clust1" class="cluster">
<title>cluster_AppModule</title>
<polygon fill="none" stroke="black" stroke-dasharray="1,5" points="8,-32.8 8,-230.8 5423,-230.8 5423,-32.8 8,-32.8"/>
</g>
<g id="clust33" class="cluster">
<title>cluster_AppModule_providers</title>
<polygon fill="none" stroke="black" points="4637,-40.8 4637,-92.8 5415,-92.8 5415,-40.8 4637,-40.8"/>
</g>
<g id="clust30" class="cluster">
<title>cluster_AppModule_imports</title>
<polygon fill="none" stroke="black" points="4485,-40.8 4485,-92.8 4629,-92.8 4629,-40.8 4485,-40.8"/>
</g>
<g id="clust32" class="cluster">
<title>cluster_AppModule_bootstrap</title>
<polygon fill="none" stroke="black" points="2697,-170.8 2697,-222.8 2821,-222.8 2821,-170.8 2697,-170.8"/>
</g>
<g id="clust2" class="cluster">
<title>cluster_AppModule_declarations</title>
<polygon fill="none" stroke="black" points="16,-40.8 16,-92.8 4477,-92.8 4477,-40.8 16,-40.8"/>
</g>
<!-- AppComponent -->
<g id="node1" class="node">
<title>AppComponent</title>
<polygon fill="#ffffb3" stroke="black" points="4468.94,-84.8 4363.06,-84.8 4363.06,-48.8 4468.94,-48.8 4468.94,-84.8"/>
<text text-anchor="middle" x="4416" y="-62.6" font-family="Times,serif" font-size="14.00">AppComponent</text>
</g>
<!-- AppModule -->
<g id="node28" class="node">
<title>AppModule</title>
<polygon fill="#8dd3c7" stroke="black" points="2800.66,-149.8 2797.66,-153.8 2776.66,-153.8 2773.66,-149.8 2717.34,-149.8 2717.34,-113.8 2800.66,-113.8 2800.66,-149.8"/>
<text text-anchor="middle" x="2759" y="-127.6" font-family="Times,serif" font-size="14.00">AppModule</text>
</g>
<!-- AppComponent&#45;&gt;AppModule -->
<g id="edge1" class="edge">
<title>AppComponent&#45;&gt;AppModule</title>
<path fill="none" stroke="black" d="M4416,-84.93C4416,-105.37 4416,-135.8 4416,-135.8 4416,-135.8 2810.79,-135.8 2810.79,-135.8"/>
<polygon fill="black" stroke="black" points="2810.79,-132.3 2800.79,-135.8 2810.79,-139.3 2810.79,-132.3"/>
</g>
<!-- AppNotDirective -->
<g id="node2" class="node">
<title>AppNotDirective</title>
<polygon fill="#ffffb3" stroke="black" points="4345.69,-84.8 4232.31,-84.8 4232.31,-48.8 4345.69,-48.8 4345.69,-84.8"/>
<text text-anchor="middle" x="4289" y="-62.6" font-family="Times,serif" font-size="14.00">AppNotDirective</text>
</g>
<!-- AppNotDirective&#45;&gt;AppModule -->
<g id="edge2" class="edge">
<title>AppNotDirective&#45;&gt;AppModule</title>
<path fill="none" stroke="black" d="M4289,-85.11C4289,-104.95 4289,-133.8 4289,-133.8 4289,-133.8 2810.72,-133.8 2810.72,-133.8"/>
<polygon fill="black" stroke="black" points="2810.72,-130.3 2800.72,-133.8 2810.72,-137.3 2810.72,-130.3"/>
</g>
<!-- ExponentialStrengthPipe -->
<g id="node3" class="node">
<title>ExponentialStrengthPipe</title>
<polygon fill="#ffffb3" stroke="black" points="4213.98,-84.8 4058.02,-84.8 4058.02,-48.8 4213.98,-48.8 4213.98,-84.8"/>
<text text-anchor="middle" x="4136" y="-62.6" font-family="Times,serif" font-size="14.00">ExponentialStrengthPipe</text>
</g>
<!-- ExponentialStrengthPipe&#45;&gt;AppModule -->
<g id="edge3" class="edge">
<title>ExponentialStrengthPipe&#45;&gt;AppModule</title>
<path fill="none" stroke="black" d="M4136,-84.97C4136,-103.89 4136,-130.8 4136,-130.8 4136,-130.8 2810.96,-130.8 2810.96,-130.8"/>
<polygon fill="black" stroke="black" points="2810.96,-127.3 2800.96,-130.8 2810.96,-134.3 2810.96,-127.3"/>
</g>
<!-- MyAboutComponent -->
<g id="node4" class="node">
<title>MyAboutComponent</title>
<polygon fill="#ffffb3" stroke="black" points="4039.78,-84.8 3904.22,-84.8 3904.22,-48.8 4039.78,-48.8 4039.78,-84.8"/>
<text text-anchor="middle" x="3972" y="-62.6" font-family="Times,serif" font-size="14.00">MyAboutComponent</text>
</g>
<!-- MyAboutComponent&#45;&gt;AppModule -->
<g id="edge4" class="edge">
<title>MyAboutComponent&#45;&gt;AppModule</title>
<path fill="none" stroke="black" d="M3972,-85.07C3972,-103.36 3972,-128.8 3972,-128.8 3972,-128.8 2810.75,-128.8 2810.75,-128.8"/>
<polygon fill="black" stroke="black" points="2810.75,-125.3 2800.75,-128.8 2810.75,-132.3 2810.75,-125.3"/>
</g>
<!-- MyBodyComponent -->
<g id="node5" class="node">
<title>MyBodyComponent</title>
<polygon fill="#ffffb3" stroke="black" points="3886.62,-84.8 3755.38,-84.8 3755.38,-48.8 3886.62,-48.8 3886.62,-84.8"/>
<text text-anchor="middle" x="3821" y="-62.6" font-family="Times,serif" font-size="14.00">MyBodyComponent</text>
</g>
<!-- MyBodyComponent&#45;&gt;AppModule -->
<g id="edge5" class="edge">
<title>MyBodyComponent&#45;&gt;AppModule</title>
<path fill="none" stroke="black" d="M3821,-84.8C3821,-102.48 3821,-126.8 3821,-126.8 3821,-126.8 2810.96,-126.8 2810.96,-126.8"/>
<polygon fill="black" stroke="black" points="2810.96,-123.3 2800.96,-126.8 2810.96,-130.3 2810.96,-123.3"/>
</g>
<!-- MyDashboardComponent -->
<g id="node6" class="node">
<title>MyDashboardComponent</title>
<polygon fill="#ffffb3" stroke="black" points="3737.93,-84.8 3576.07,-84.8 3576.07,-48.8 3737.93,-48.8 3737.93,-84.8"/>
<text text-anchor="middle" x="3657" y="-62.6" font-family="Times,serif" font-size="14.00">MyDashboardComponent</text>
</g>
<!-- MyDashboardComponent&#45;&gt;AppModule -->
<g id="edge6" class="edge">
<title>MyDashboardComponent&#45;&gt;AppModule</title>
<path fill="none" stroke="black" d="M3657,-84.83C3657,-101.86 3657,-124.8 3657,-124.8 3657,-124.8 2810.81,-124.8 2810.81,-124.8"/>
<polygon fill="black" stroke="black" points="2810.81,-121.3 2800.81,-124.8 2810.81,-128.3 2810.81,-121.3"/>
</g>
<!-- MyEmployeeComponent -->
<g id="node7" class="node">
<title>MyEmployeeComponent</title>
<polygon fill="#ffffb3" stroke="black" points="3558.54,-84.8 3401.46,-84.8 3401.46,-48.8 3558.54,-48.8 3558.54,-84.8"/>
<text text-anchor="middle" x="3480" y="-62.6" font-family="Times,serif" font-size="14.00">MyEmployeeComponent</text>
</g>
<!-- MyEmployeeComponent&#45;&gt;AppModule -->
<g id="edge7" class="edge">
<title>MyEmployeeComponent&#45;&gt;AppModule</title>
<path fill="none" stroke="black" d="M3480,-84.83C3480,-101.2 3480,-122.8 3480,-122.8 3480,-122.8 2810.88,-122.8 2810.88,-122.8"/>
<polygon fill="black" stroke="black" points="2810.88,-119.3 2800.88,-122.8 2810.88,-126.3 2810.88,-119.3"/>
</g>
<!-- MyHeadComponent -->
<g id="node8" class="node">
<title>MyHeadComponent</title>
<polygon fill="#ffffb3" stroke="black" points="3383.32,-84.8 3252.68,-84.8 3252.68,-48.8 3383.32,-48.8 3383.32,-84.8"/>
<text text-anchor="middle" x="3318" y="-62.6" font-family="Times,serif" font-size="14.00">MyHeadComponent</text>
</g>
<!-- MyHeadComponent&#45;&gt;AppModule -->
<g id="edge8" class="edge">
<title>MyHeadComponent&#45;&gt;AppModule</title>
<path fill="none" stroke="black" d="M3318,-85.08C3318,-100.75 3318,-120.8 3318,-120.8 3318,-120.8 2811.02,-120.8 2811.02,-120.8"/>
<polygon fill="black" stroke="black" points="2811.02,-117.3 2801.02,-120.8 2811.02,-124.3 2811.02,-117.3"/>
</g>
<!-- MyHttpApiMemComponent -->
<g id="node9" class="node">
<title>MyHttpApiMemComponent</title>
<polygon fill="#ffffb3" stroke="black" points="3235.22,-84.8 3058.78,-84.8 3058.78,-48.8 3235.22,-48.8 3235.22,-84.8"/>
<text text-anchor="middle" x="3147" y="-62.6" font-family="Times,serif" font-size="14.00">MyHttpApiMemComponent</text>
</g>
<!-- MyHttpApiMemComponent&#45;&gt;AppModule -->
<g id="edge9" class="edge">
<title>MyHttpApiMemComponent&#45;&gt;AppModule</title>
<path fill="none" stroke="black" d="M3147,-84.99C3147,-99.98 3147,-118.8 3147,-118.8 3147,-118.8 2810.89,-118.8 2810.89,-118.8"/>
<polygon fill="black" stroke="black" points="2810.89,-115.3 2800.89,-118.8 2810.89,-122.3 2810.89,-115.3"/>
</g>
<!-- MyHttpRequestEmpComponent -->
<g id="node10" class="node">
<title>MyHttpRequestEmpComponent</title>
<polygon fill="#ffffb3" stroke="black" points="3040.71,-84.8 2843.29,-84.8 2843.29,-48.8 3040.71,-48.8 3040.71,-84.8"/>
<text text-anchor="middle" x="2942" y="-62.6" font-family="Times,serif" font-size="14.00">MyHttpRequestEmpComponent</text>
</g>
<!-- MyHttpRequestEmpComponent&#45;&gt;AppModule -->
<g id="edge10" class="edge">
<title>MyHttpRequestEmpComponent&#45;&gt;AppModule</title>
<path fill="none" stroke="black" d="M2942,-84.85C2942,-99.17 2942,-116.8 2942,-116.8 2942,-116.8 2810.98,-116.8 2810.98,-116.8"/>
<polygon fill="black" stroke="black" points="2810.98,-113.3 2800.98,-116.8 2810.98,-120.3 2810.98,-113.3"/>
</g>
<!-- MyLearnComponent -->
<g id="node11" class="node">
<title>MyLearnComponent</title>
<polygon fill="#ffffb3" stroke="black" points="2825.92,-84.8 2692.08,-84.8 2692.08,-48.8 2825.92,-48.8 2825.92,-84.8"/>
<text text-anchor="middle" x="2759" y="-62.6" font-family="Times,serif" font-size="14.00">MyLearnComponent</text>
</g>
<!-- MyLearnComponent&#45;&gt;AppModule -->
<g id="edge11" class="edge">
<title>MyLearnComponent&#45;&gt;AppModule</title>
<path fill="none" stroke="black" d="M2759,-84.91C2759,-84.91 2759,-103.79 2759,-103.79"/>
<polygon fill="black" stroke="black" points="2755.5,-103.79 2759,-113.79 2762.5,-103.79 2755.5,-103.79"/>
</g>
<!-- MyLeftComponent -->
<g id="node12" class="node">
<title>MyLeftComponent</title>
<polygon fill="#ffffb3" stroke="black" points="2674.1,-84.8 2549.9,-84.8 2549.9,-48.8 2674.1,-48.8 2674.1,-84.8"/>
<text text-anchor="middle" x="2612" y="-62.6" font-family="Times,serif" font-size="14.00">MyLeftComponent</text>
</g>
<!-- MyLeftComponent&#45;&gt;AppModule -->
<g id="edge12" class="edge">
<title>MyLeftComponent&#45;&gt;AppModule</title>
<path fill="none" stroke="black" d="M2612,-84.85C2612,-99.17 2612,-116.8 2612,-116.8 2612,-116.8 2707.27,-116.8 2707.27,-116.8"/>
<polygon fill="black" stroke="black" points="2707.27,-120.3 2717.27,-116.8 2707.27,-113.3 2707.27,-120.3"/>
</g>
<!-- MyLoginComponent -->
<g id="node13" class="node">
<title>MyLoginComponent</title>
<polygon fill="#ffffb3" stroke="black" points="2532.22,-84.8 2397.78,-84.8 2397.78,-48.8 2532.22,-48.8 2532.22,-84.8"/>
<text text-anchor="middle" x="2465" y="-62.6" font-family="Times,serif" font-size="14.00">MyLoginComponent</text>
</g>
<!-- MyLoginComponent&#45;&gt;AppModule -->
<g id="edge13" class="edge">
<title>MyLoginComponent&#45;&gt;AppModule</title>
<path fill="none" stroke="black" d="M2465,-84.99C2465,-99.98 2465,-118.8 2465,-118.8 2465,-118.8 2707.19,-118.8 2707.19,-118.8"/>
<polygon fill="black" stroke="black" points="2707.19,-122.3 2717.19,-118.8 2707.19,-115.3 2707.19,-122.3"/>
</g>
<!-- MyModalFormComponent -->
<g id="node14" class="node">
<title>MyModalFormComponent</title>
<polygon fill="#ffffb3" stroke="black" points="2379.67,-84.8 2212.33,-84.8 2212.33,-48.8 2379.67,-48.8 2379.67,-84.8"/>
<text text-anchor="middle" x="2296" y="-62.6" font-family="Times,serif" font-size="14.00">MyModalFormComponent</text>
</g>
<!-- MyModalFormComponent&#45;&gt;AppModule -->
<g id="edge14" class="edge">
<title>MyModalFormComponent&#45;&gt;AppModule</title>
<path fill="none" stroke="black" d="M2296,-85.08C2296,-100.75 2296,-120.8 2296,-120.8 2296,-120.8 2707.1,-120.8 2707.1,-120.8"/>
<polygon fill="black" stroke="black" points="2707.1,-124.3 2717.1,-120.8 2707.1,-117.3 2707.1,-124.3"/>
</g>
<!-- MyObserPromiseComponent -->
<g id="node15" class="node">
<title>MyObserPromiseComponent</title>
<polygon fill="#ffffb3" stroke="black" points="2194.1,-84.8 2013.9,-84.8 2013.9,-48.8 2194.1,-48.8 2194.1,-84.8"/>
<text text-anchor="middle" x="2104" y="-62.6" font-family="Times,serif" font-size="14.00">MyObserPromiseComponent</text>
</g>
<!-- MyObserPromiseComponent&#45;&gt;AppModule -->
<g id="edge15" class="edge">
<title>MyObserPromiseComponent&#45;&gt;AppModule</title>
<path fill="none" stroke="black" d="M2104,-84.83C2104,-101.2 2104,-122.8 2104,-122.8 2104,-122.8 2707.03,-122.8 2707.03,-122.8"/>
<polygon fill="black" stroke="black" points="2707.03,-126.3 2717.03,-122.8 2707.03,-119.3 2707.03,-126.3"/>
</g>
<!-- MyPipeComponent -->
<g id="node16" class="node">
<title>MyPipeComponent</title>
<polygon fill="#ffffb3" stroke="black" points="1995.67,-84.8 1870.33,-84.8 1870.33,-48.8 1995.67,-48.8 1995.67,-84.8"/>
<text text-anchor="middle" x="1933" y="-62.6" font-family="Times,serif" font-size="14.00">MyPipeComponent</text>
</g>
<!-- MyPipeComponent&#45;&gt;AppModule -->
<g id="edge16" class="edge">
<title>MyPipeComponent&#45;&gt;AppModule</title>
<path fill="none" stroke="black" d="M1933,-84.83C1933,-101.86 1933,-124.8 1933,-124.8 1933,-124.8 2707.19,-124.8 2707.19,-124.8"/>
<polygon fill="black" stroke="black" points="2707.19,-128.3 2717.19,-124.8 2707.19,-121.3 2707.19,-128.3"/>
</g>
<!-- MyReactiveFormComponent -->
<g id="node17" class="node">
<title>MyReactiveFormComponent</title>
<polygon fill="#ffffb3" stroke="black" points="1852.09,-84.8 1671.91,-84.8 1671.91,-48.8 1852.09,-48.8 1852.09,-84.8"/>
<text text-anchor="middle" x="1762" y="-62.6" font-family="Times,serif" font-size="14.00">MyReactiveFormComponent</text>
</g>
<!-- MyReactiveFormComponent&#45;&gt;AppModule -->
<g id="edge17" class="edge">
<title>MyReactiveFormComponent&#45;&gt;AppModule</title>
<path fill="none" stroke="black" d="M1762,-84.8C1762,-102.48 1762,-126.8 1762,-126.8 1762,-126.8 2707.11,-126.8 2707.11,-126.8"/>
<polygon fill="black" stroke="black" points="2707.11,-130.3 2717.11,-126.8 2707.11,-123.3 2707.11,-130.3"/>
</g>
<!-- MyRightComponent -->
<g id="node18" class="node">
<title>MyRightComponent</title>
<polygon fill="#ffffb3" stroke="black" points="1653.9,-84.8 1522.1,-84.8 1522.1,-48.8 1653.9,-48.8 1653.9,-84.8"/>
<text text-anchor="middle" x="1588" y="-62.6" font-family="Times,serif" font-size="14.00">MyRightComponent</text>
</g>
<!-- MyRightComponent&#45;&gt;AppModule -->
<g id="edge18" class="edge">
<title>MyRightComponent&#45;&gt;AppModule</title>
<path fill="none" stroke="black" d="M1588,-85.07C1588,-103.36 1588,-128.8 1588,-128.8 1588,-128.8 2707.32,-128.8 2707.32,-128.8"/>
<polygon fill="black" stroke="black" points="2707.32,-132.3 2717.32,-128.8 2707.32,-125.3 2707.32,-132.3"/>
</g>
<!-- MyRxJsComponent -->
<g id="node19" class="node">
<title>MyRxJsComponent</title>
<polygon fill="#ffffb3" stroke="black" points="1504.01,-84.8 1375.99,-84.8 1375.99,-48.8 1504.01,-48.8 1504.01,-84.8"/>
<text text-anchor="middle" x="1440" y="-62.6" font-family="Times,serif" font-size="14.00">MyRxJsComponent</text>
</g>
<!-- MyRxJsComponent&#45;&gt;AppModule -->
<g id="edge19" class="edge">
<title>MyRxJsComponent&#45;&gt;AppModule</title>
<path fill="none" stroke="black" d="M1440,-84.97C1440,-103.89 1440,-130.8 1440,-130.8 1440,-130.8 2706.98,-130.8 2706.98,-130.8"/>
<polygon fill="black" stroke="black" points="2706.98,-134.3 2716.98,-130.8 2706.98,-127.3 2706.98,-134.3"/>
</g>
<!-- MyStudentComponent -->
<g id="node20" class="node">
<title>MyStudentComponent</title>
<polygon fill="#ffffb3" stroke="black" points="1357.56,-84.8 1214.44,-84.8 1214.44,-48.8 1357.56,-48.8 1357.56,-84.8"/>
<text text-anchor="middle" x="1286" y="-62.6" font-family="Times,serif" font-size="14.00">MyStudentComponent</text>
</g>
<!-- MyStudentComponent&#45;&gt;AppModule -->
<g id="edge20" class="edge">
<title>MyStudentComponent&#45;&gt;AppModule</title>
<path fill="none" stroke="black" d="M1286,-85.11C1286,-104.95 1286,-133.8 1286,-133.8 1286,-133.8 2707.29,-133.8 2707.29,-133.8"/>
<polygon fill="black" stroke="black" points="2707.29,-137.3 2717.29,-133.8 2707.29,-130.3 2707.29,-137.3"/>
</g>
<!-- MyUsersComponent -->
<g id="node21" class="node">
<title>MyUsersComponent</title>
<polygon fill="#ffffb3" stroke="black" points="1196.16,-84.8 1063.84,-84.8 1063.84,-48.8 1196.16,-48.8 1196.16,-84.8"/>
<text text-anchor="middle" x="1130" y="-62.6" font-family="Times,serif" font-size="14.00">MyUsersComponent</text>
</g>
<!-- MyUsersComponent&#45;&gt;AppModule -->
<g id="edge21" class="edge">
<title>MyUsersComponent&#45;&gt;AppModule</title>
<path fill="none" stroke="black" d="M1130,-84.93C1130,-105.37 1130,-135.8 1130,-135.8 1130,-135.8 2707.1,-135.8 2707.1,-135.8"/>
<polygon fill="black" stroke="black" points="2707.1,-139.3 2717.1,-135.8 2707.1,-132.3 2707.1,-139.3"/>
</g>
<!-- MyViewchildComponent -->
<g id="node22" class="node">
<title>MyViewchildComponent</title>
<polygon fill="#ffffb3" stroke="black" points="1045.6,-84.8 886.4,-84.8 886.4,-48.8 1045.6,-48.8 1045.6,-84.8"/>
<text text-anchor="middle" x="966" y="-62.6" font-family="Times,serif" font-size="14.00">MyViewchildComponent</text>
</g>
<!-- MyViewchildComponent&#45;&gt;AppModule -->
<g id="edge22" class="edge">
<title>MyViewchildComponent&#45;&gt;AppModule</title>
<path fill="none" stroke="black" d="M966,-85.08C966,-106.12 966,-137.8 966,-137.8 966,-137.8 2707.32,-137.8 2707.32,-137.8"/>
<polygon fill="black" stroke="black" points="2707.32,-141.3 2717.32,-137.8 2707.32,-134.3 2707.32,-141.3"/>
</g>
<!-- NgrxDemoComponent -->
<g id="node23" class="node">
<title>NgrxDemoComponent</title>
<polygon fill="#ffffb3" stroke="black" points="868.32,-84.8 723.68,-84.8 723.68,-48.8 868.32,-48.8 868.32,-84.8"/>
<text text-anchor="middle" x="796" y="-62.6" font-family="Times,serif" font-size="14.00">NgrxDemoComponent</text>
</g>
<!-- NgrxDemoComponent&#45;&gt;AppModule -->
<g id="edge23" class="edge">
<title>NgrxDemoComponent&#45;&gt;AppModule</title>
<path fill="none" stroke="black" d="M796,-84.84C796,-106.46 796,-139.8 796,-139.8 796,-139.8 2707.09,-139.8 2707.09,-139.8"/>
<polygon fill="black" stroke="black" points="2707.09,-143.3 2717.09,-139.8 2707.09,-136.3 2707.09,-143.3"/>
</g>
<!-- ReactiveValidationComponent -->
<g id="node24" class="node">
<title>ReactiveValidationComponent</title>
<polygon fill="#ffffb3" stroke="black" points="705.9,-84.8 516.1,-84.8 516.1,-48.8 705.9,-48.8 705.9,-84.8"/>
<text text-anchor="middle" x="611" y="-62.6" font-family="Times,serif" font-size="14.00">ReactiveValidationComponent</text>
</g>
<!-- ReactiveValidationComponent&#45;&gt;AppModule -->
<g id="edge24" class="edge">
<title>ReactiveValidationComponent&#45;&gt;AppModule</title>
<path fill="none" stroke="black" d="M611,-84.96C611,-107.15 611,-141.8 611,-141.8 611,-141.8 2707.06,-141.8 2707.06,-141.8"/>
<polygon fill="black" stroke="black" points="2707.06,-145.3 2717.06,-141.8 2707.06,-138.3 2707.06,-145.3"/>
</g>
<!-- RegisterComponent -->
<g id="node25" class="node">
<title>RegisterComponent</title>
<polygon fill="#ffffb3" stroke="black" points="497.99,-84.8 370.01,-84.8 370.01,-48.8 497.99,-48.8 497.99,-84.8"/>
<text text-anchor="middle" x="434" y="-62.6" font-family="Times,serif" font-size="14.00">RegisterComponent</text>
</g>
<!-- RegisterComponent&#45;&gt;AppModule -->
<g id="edge25" class="edge">
<title>RegisterComponent&#45;&gt;AppModule</title>
<path fill="none" stroke="black" d="M434,-85.05C434,-107.82 434,-143.8 434,-143.8 434,-143.8 2707.16,-143.8 2707.16,-143.8"/>
<polygon fill="black" stroke="black" points="2707.16,-147.3 2717.16,-143.8 2707.16,-140.3 2707.16,-147.3"/>
</g>
<!-- SubjectDemoComponent -->
<g id="node26" class="node">
<title>SubjectDemoComponent</title>
<polygon fill="#ffffb3" stroke="black" points="351.54,-84.8 194.46,-84.8 194.46,-48.8 351.54,-48.8 351.54,-84.8"/>
<text text-anchor="middle" x="273" y="-62.6" font-family="Times,serif" font-size="14.00">SubjectDemoComponent</text>
</g>
<!-- SubjectDemoComponent&#45;&gt;AppModule -->
<g id="edge26" class="edge">
<title>SubjectDemoComponent&#45;&gt;AppModule</title>
<path fill="none" stroke="black" d="M273,-85.12C273,-108.46 273,-145.8 273,-145.8 273,-145.8 2707.15,-145.8 2707.15,-145.8"/>
<polygon fill="black" stroke="black" points="2707.15,-149.3 2717.15,-145.8 2707.15,-142.3 2707.15,-149.3"/>
</g>
<!-- SubscriptionComponent -->
<g id="node27" class="node">
<title>SubscriptionComponent</title>
<polygon fill="#ffffb3" stroke="black" points="176.11,-84.8 23.89,-84.8 23.89,-48.8 176.11,-48.8 176.11,-84.8"/>
<text text-anchor="middle" x="100" y="-62.6" font-family="Times,serif" font-size="14.00">SubscriptionComponent</text>
</g>
<!-- SubscriptionComponent&#45;&gt;AppModule -->
<g id="edge27" class="edge">
<title>SubscriptionComponent&#45;&gt;AppModule</title>
<path fill="none" stroke="black" d="M100,-85.18C100,-109.08 100,-147.8 100,-147.8 100,-147.8 2707.23,-147.8 2707.23,-147.8"/>
<polygon fill="black" stroke="black" points="2707.23,-151.3 2717.23,-147.8 2707.23,-144.3 2707.23,-151.3"/>
</g>
<!-- AppComponent  -->
<g id="node30" class="node">
<title>AppComponent </title>
<polygon fill="#80b1d3" stroke="black" points="2813.44,-214.8 2704.56,-214.8 2704.56,-178.8 2813.44,-178.8 2813.44,-214.8"/>
<text text-anchor="middle" x="2759" y="-192.6" font-family="Times,serif" font-size="14.00">AppComponent </text>
</g>
<!-- AppModule&#45;&gt;AppComponent  -->
<g id="edge29" class="edge">
<title>AppModule&#45;&gt;AppComponent </title>
<path fill="none" stroke="black" stroke-dasharray="1,5" d="M2759,-149.91C2759,-149.91 2759,-168.79 2759,-168.79"/>
<polygon fill="black" stroke="black" points="2755.5,-168.79 2759,-178.79 2762.5,-168.79 2755.5,-168.79"/>
</g>
<!-- AppRoutingModule -->
<g id="node29" class="node">
<title>AppRoutingModule</title>
<polygon fill="#8dd3c7" stroke="black" points="4621.28,-84.8 4618.28,-88.8 4597.28,-88.8 4594.28,-84.8 4492.72,-84.8 4492.72,-48.8 4621.28,-48.8 4621.28,-84.8"/>
<text text-anchor="middle" x="4557" y="-62.6" font-family="Times,serif" font-size="14.00">AppRoutingModule</text>
</g>
<!-- AppRoutingModule&#45;&gt;AppModule -->
<g id="edge28" class="edge">
<title>AppRoutingModule&#45;&gt;AppModule</title>
<path fill="none" stroke="black" d="M4557,-85.08C4557,-106.12 4557,-137.8 4557,-137.8 4557,-137.8 2810.8,-137.8 2810.8,-137.8"/>
<polygon fill="black" stroke="black" points="2810.8,-134.3 2800.8,-137.8 2810.8,-141.3 2810.8,-134.3"/>
</g>
<!-- ConfigService -->
<g id="node31" class="node">
<title>ConfigService</title>
<ellipse fill="#fdb462" stroke="black" cx="5340" cy="-66.8" rx="66.64" ry="18"/>
<text text-anchor="middle" x="5340" y="-62.6" font-family="Times,serif" font-size="14.00">ConfigService</text>
</g>
<!-- ConfigService&#45;&gt;AppModule -->
<g id="edge30" class="edge">
<title>ConfigService&#45;&gt;AppModule</title>
<path fill="none" stroke="black" d="M5340,-85.18C5340,-109.08 5340,-147.8 5340,-147.8 5340,-147.8 2810.85,-147.8 2810.85,-147.8"/>
<polygon fill="black" stroke="black" points="2810.85,-144.3 2800.85,-147.8 2810.85,-151.3 2810.85,-144.3"/>
</g>
<!-- DataAPIService -->
<g id="node32" class="node">
<title>DataAPIService</title>
<ellipse fill="#fdb462" stroke="black" cx="5181" cy="-66.8" rx="73.57" ry="18"/>
<text text-anchor="middle" x="5181" y="-62.6" font-family="Times,serif" font-size="14.00">DataAPIService</text>
</g>
<!-- DataAPIService&#45;&gt;AppModule -->
<g id="edge31" class="edge">
<title>DataAPIService&#45;&gt;AppModule</title>
<path fill="none" stroke="black" d="M5181,-85.12C5181,-108.46 5181,-145.8 5181,-145.8 5181,-145.8 2810.78,-145.8 2810.78,-145.8"/>
<polygon fill="black" stroke="black" points="2810.78,-142.3 2800.78,-145.8 2810.78,-149.3 2810.78,-142.3"/>
</g>
<!-- MemAPIService -->
<g id="node33" class="node">
<title>MemAPIService</title>
<ellipse fill="#fdb462" stroke="black" cx="5013" cy="-66.8" rx="75.88" ry="18"/>
<text text-anchor="middle" x="5013" y="-62.6" font-family="Times,serif" font-size="14.00">MemAPIService</text>
</g>
<!-- MemAPIService&#45;&gt;AppModule -->
<g id="edge32" class="edge">
<title>MemAPIService&#45;&gt;AppModule</title>
<path fill="none" stroke="black" d="M5013,-85.05C5013,-107.82 5013,-143.8 5013,-143.8 5013,-143.8 2811.02,-143.8 2811.02,-143.8"/>
<polygon fill="black" stroke="black" points="2811.02,-140.3 2801.02,-143.8 2811.02,-147.3 2811.02,-140.3"/>
</g>
<!-- loginService -->
<g id="node34" class="node">
<title>loginService</title>
<ellipse fill="#fdb462" stroke="black" cx="4859" cy="-66.8" rx="59.69" ry="18"/>
<text text-anchor="middle" x="4859" y="-62.6" font-family="Times,serif" font-size="14.00">loginService</text>
</g>
<!-- loginService&#45;&gt;AppModule -->
<g id="edge33" class="edge">
<title>loginService&#45;&gt;AppModule</title>
<path fill="none" stroke="black" d="M4859,-84.96C4859,-107.15 4859,-141.8 4859,-141.8 4859,-141.8 2810.95,-141.8 2810.95,-141.8"/>
<polygon fill="black" stroke="black" points="2810.95,-138.3 2800.95,-141.8 2810.95,-145.3 2810.95,-138.3"/>
</g>
<!-- studentService -->
<g id="node35" class="node">
<title>studentService</title>
<ellipse fill="#fdb462" stroke="black" cx="4713" cy="-66.8" rx="67.78" ry="18"/>
<text text-anchor="middle" x="4713" y="-62.6" font-family="Times,serif" font-size="14.00">studentService</text>
</g>
<!-- studentService&#45;&gt;AppModule -->
<g id="edge34" class="edge">
<title>studentService&#45;&gt;AppModule</title>
<path fill="none" stroke="black" d="M4713,-84.84C4713,-106.46 4713,-139.8 4713,-139.8 4713,-139.8 2810.72,-139.8 2810.72,-139.8"/>
<polygon fill="black" stroke="black" points="2810.72,-136.3 2800.72,-139.8 2810.72,-143.3 2810.72,-136.3"/>
</g>
</g>
</svg>
