<?xml version="1.0" encoding="UTF-8" standalone="no"?>
<!DOCTYPE svg PUBLIC "-//W3C//DTD SVG 1.1//EN"
 "http://www.w3.org/Graphics/SVG/1.1/DTD/svg11.dtd">
<!-- Generated by graphviz version 5.0.0 (20220707.1540)
 -->
<!-- Title: dependencies Pages: 1 -->
<svg width="5439pt" height="247pt"
 viewBox="0.00 0.00 5439.00 246.80" xmlns="http://www.w3.org/2000/svg" xmlns:xlink="http://www.w3.org/1999/xlink">
<g id="graph0" class="graph" transform="scale(1 1) rotate(0) translate(4 242.8)">
<title>dependencies</title>
<polygon fill="white" stroke="transparent" points="-4,4 -4,-242.8 5435,-242.8 5435,4 -4,4"/>
<text text-anchor="middle" x="2715.5" y="-8.2" font-family="sans-serif" font-size="14.00">dependencies</text>
<g id="clust1" class="cluster">
<title>cluster_AppModule</title>
<polygon fill="none" stroke="black" stroke-dasharray="1,5" points="8,-32.8 8,-230.8 5423,-230.8 5423,-32.8 8,-32.8"/>
</g>
<g id="clust2" class="cluster">
<title>cluster_AppModule_declarations</title>
<polygon fill="none" stroke="black" points="954,-40.8 954,-92.8 5415,-92.8 5415,-40.8 954,-40.8"/>
</g>
<g id="clust30" class="cluster">
<title>cluster_AppModule_imports</title>
<polygon fill="none" stroke="black" points="802,-40.8 802,-92.8 946,-92.8 946,-40.8 802,-40.8"/>
</g>
<g id="clust32" class="cluster">
<title>cluster_AppModule_bootstrap</title>
<polygon fill="none" stroke="black" points="2638,-170.8 2638,-222.8 2762,-222.8 2762,-170.8 2638,-170.8"/>
</g>
<g id="clust33" class="cluster">
<title>cluster_AppModule_providers</title>
<polygon fill="none" stroke="black" points="16,-40.8 16,-92.8 794,-92.8 794,-40.8 16,-40.8"/>
</g>
<!-- AppComponent -->
<g id="node1" class="node">
<title>AppComponent</title>
<polygon fill="#ffffb3" stroke="black" points="5406.94,-84.8 5301.06,-84.8 5301.06,-48.8 5406.94,-48.8 5406.94,-84.8"/>
<text text-anchor="middle" x="5354" y="-62.6" font-family="Times,serif" font-size="14.00">AppComponent</text>
</g>
<!-- AppModule -->
<g id="node28" class="node">
<title>AppModule</title>
<polygon fill="#8dd3c7" stroke="black" points="2741.66,-149.8 2738.66,-153.8 2717.66,-153.8 2714.66,-149.8 2658.34,-149.8 2658.34,-113.8 2741.66,-113.8 2741.66,-149.8"/>
<text text-anchor="middle" x="2700" y="-127.6" font-family="Times,serif" font-size="14.00">AppModule</text>
</g>
<!-- AppComponent&#45;&gt;AppModule -->
<g id="edge1" class="edge">
<title>AppComponent&#45;&gt;AppModule</title>
<path fill="none" stroke="black" d="M5354,-85.18C5354,-109.08 5354,-147.8 5354,-147.8 5354,-147.8 2751.69,-147.8 2751.69,-147.8"/>
<polygon fill="black" stroke="black" points="2751.69,-144.3 2741.69,-147.8 2751.69,-151.3 2751.69,-144.3"/>
</g>
<!-- AppNotDirective -->
<g id="node2" class="node">
<title>AppNotDirective</title>
<polygon fill="#ffffb3" stroke="black" points="5283.69,-84.8 5170.31,-84.8 5170.31,-48.8 5283.69,-48.8 5283.69,-84.8"/>
<text text-anchor="middle" x="5227" y="-62.6" font-family="Times,serif" font-size="14.00">AppNotDirective</text>
</g>
<!-- AppNotDirective&#45;&gt;AppModule -->
<g id="edge2" class="edge">
<title>AppNotDirective&#45;&gt;AppModule</title>
<path fill="none" stroke="black" d="M5227,-85.12C5227,-108.46 5227,-145.8 5227,-145.8 5227,-145.8 2751.75,-145.8 2751.75,-145.8"/>
<polygon fill="black" stroke="black" points="2751.75,-142.3 2741.75,-145.8 2751.75,-149.3 2751.75,-142.3"/>
</g>
<!-- ExponentialStrengthPipe -->
<g id="node3" class="node">
<title>ExponentialStrengthPipe</title>
<polygon fill="#ffffb3" stroke="black" points="5151.98,-84.8 4996.02,-84.8 4996.02,-48.8 5151.98,-48.8 5151.98,-84.8"/>
<text text-anchor="middle" x="5074" y="-62.6" font-family="Times,serif" font-size="14.00">ExponentialStrengthPipe</text>
</g>
<!-- ExponentialStrengthPipe&#45;&gt;AppModule -->
<g id="edge3" class="edge">
<title>ExponentialStrengthPipe&#45;&gt;AppModule</title>
<path fill="none" stroke="black" d="M5074,-85.05C5074,-107.82 5074,-143.8 5074,-143.8 5074,-143.8 2751.71,-143.8 2751.71,-143.8"/>
<polygon fill="black" stroke="black" points="2751.71,-140.3 2741.71,-143.8 2751.71,-147.3 2751.71,-140.3"/>
</g>
<!-- MyAboutComponent -->
<g id="node4" class="node">
<title>MyAboutComponent</title>
<polygon fill="#ffffb3" stroke="black" points="4977.78,-84.8 4842.22,-84.8 4842.22,-48.8 4977.78,-48.8 4977.78,-84.8"/>
<text text-anchor="middle" x="4910" y="-62.6" font-family="Times,serif" font-size="14.00">MyAboutComponent</text>
</g>
<!-- MyAboutComponent&#45;&gt;AppModule -->
<g id="edge4" class="edge">
<title>MyAboutComponent&#45;&gt;AppModule</title>
<path fill="none" stroke="black" d="M4910,-84.96C4910,-107.15 4910,-141.8 4910,-141.8 4910,-141.8 2751.69,-141.8 2751.69,-141.8"/>
<polygon fill="black" stroke="black" points="2751.69,-138.3 2741.69,-141.8 2751.69,-145.3 2751.69,-138.3"/>
</g>
<!-- MyBodyComponent -->
<g id="node5" class="node">
<title>MyBodyComponent</title>
<polygon fill="#ffffb3" stroke="black" points="4824.62,-84.8 4693.38,-84.8 4693.38,-48.8 4824.62,-48.8 4824.62,-84.8"/>
<text text-anchor="middle" x="4759" y="-62.6" font-family="Times,serif" font-size="14.00">MyBodyComponent</text>
</g>
<!-- MyBodyComponent&#45;&gt;AppModule -->
<g id="edge5" class="edge">
<title>MyBodyComponent&#45;&gt;AppModule</title>
<path fill="none" stroke="black" d="M4759,-84.84C4759,-106.46 4759,-139.8 4759,-139.8 4759,-139.8 2752.06,-139.8 2752.06,-139.8"/>
<polygon fill="black" stroke="black" points="2752.06,-136.3 2742.06,-139.8 2752.06,-143.3 2752.06,-136.3"/>
</g>
<!-- MyDashboardComponent -->
<g id="node6" class="node">
<title>MyDashboardComponent</title>
<polygon fill="#ffffb3" stroke="black" points="4675.93,-84.8 4514.07,-84.8 4514.07,-48.8 4675.93,-48.8 4675.93,-84.8"/>
<text text-anchor="middle" x="4595" y="-62.6" font-family="Times,serif" font-size="14.00">MyDashboardComponent</text>
</g>
<!-- MyDashboardComponent&#45;&gt;AppModule -->
<g id="edge6" class="edge">
<title>MyDashboardComponent&#45;&gt;AppModule</title>
<path fill="none" stroke="black" d="M4595,-85.08C4595,-106.12 4595,-137.8 4595,-137.8 4595,-137.8 2751.79,-137.8 2751.79,-137.8"/>
<polygon fill="black" stroke="black" points="2751.79,-134.3 2741.79,-137.8 2751.79,-141.3 2751.79,-134.3"/>
</g>
<!-- MyEmployeeComponent -->
<g id="node7" class="node">
<title>MyEmployeeComponent</title>
<polygon fill="#ffffb3" stroke="black" points="4496.54,-84.8 4339.46,-84.8 4339.46,-48.8 4496.54,-48.8 4496.54,-84.8"/>
<text text-anchor="middle" x="4418" y="-62.6" font-family="Times,serif" font-size="14.00">MyEmployeeComponent</text>
</g>
<!-- MyEmployeeComponent&#45;&gt;AppModule -->
<g id="edge7" class="edge">
<title>MyEmployeeComponent&#45;&gt;AppModule</title>
<path fill="none" stroke="black" d="M4418,-84.93C4418,-105.37 4418,-135.8 4418,-135.8 4418,-135.8 2752.04,-135.8 2752.04,-135.8"/>
<polygon fill="black" stroke="black" points="2752.04,-132.3 2742.04,-135.8 2752.04,-139.3 2752.04,-132.3"/>
</g>
<!-- MyHeadComponent -->
<g id="node8" class="node">
<title>MyHeadComponent</title>
<polygon fill="#ffffb3" stroke="black" points="4321.32,-84.8 4190.68,-84.8 4190.68,-48.8 4321.32,-48.8 4321.32,-84.8"/>
<text text-anchor="middle" x="4256" y="-62.6" font-family="Times,serif" font-size="14.00">MyHeadComponent</text>
</g>
<!-- MyHeadComponent&#45;&gt;AppModule -->
<g id="edge8" class="edge">
<title>MyHeadComponent&#45;&gt;AppModule</title>
<path fill="none" stroke="black" d="M4256,-85.11C4256,-104.95 4256,-133.8 4256,-133.8 4256,-133.8 2752.02,-133.8 2752.02,-133.8"/>
<polygon fill="black" stroke="black" points="2752.02,-130.3 2742.02,-133.8 2752.02,-137.3 2752.02,-130.3"/>
</g>
<!-- MyHttpApiMemComponent -->
<g id="node9" class="node">
<title>MyHttpApiMemComponent</title>
<polygon fill="#ffffb3" stroke="black" points="4173.22,-84.8 3996.78,-84.8 3996.78,-48.8 4173.22,-48.8 4173.22,-84.8"/>
<text text-anchor="middle" x="4085" y="-62.6" font-family="Times,serif" font-size="14.00">MyHttpApiMemComponent</text>
</g>
<!-- MyHttpApiMemComponent&#45;&gt;AppModule -->
<g id="edge9" class="edge">
<title>MyHttpApiMemComponent&#45;&gt;AppModule</title>
<path fill="none" stroke="black" d="M4085,-84.97C4085,-103.89 4085,-130.8 4085,-130.8 4085,-130.8 2751.83,-130.8 2751.83,-130.8"/>
<polygon fill="black" stroke="black" points="2751.83,-127.3 2741.83,-130.8 2751.83,-134.3 2751.83,-127.3"/>
</g>
<!-- MyHttpRequestEmpComponent -->
<g id="node10" class="node">
<title>MyHttpRequestEmpComponent</title>
<polygon fill="#ffffb3" stroke="black" points="3978.71,-84.8 3781.29,-84.8 3781.29,-48.8 3978.71,-48.8 3978.71,-84.8"/>
<text text-anchor="middle" x="3880" y="-62.6" font-family="Times,serif" font-size="14.00">MyHttpRequestEmpComponent</text>
</g>
<!-- MyHttpRequestEmpComponent&#45;&gt;AppModule -->
<g id="edge10" class="edge">
<title>MyHttpRequestEmpComponent&#45;&gt;AppModule</title>
<path fill="none" stroke="black" d="M3880,-85.07C3880,-103.36 3880,-128.8 3880,-128.8 3880,-128.8 2752,-128.8 2752,-128.8"/>
<polygon fill="black" stroke="black" points="2752,-125.3 2742,-128.8 2752,-132.3 2752,-125.3"/>
</g>
<!-- MyLearnComponent -->
<g id="node11" class="node">
<title>MyLearnComponent</title>
<polygon fill="#ffffb3" stroke="black" points="3763.92,-84.8 3630.08,-84.8 3630.08,-48.8 3763.92,-48.8 3763.92,-84.8"/>
<text text-anchor="middle" x="3697" y="-62.6" font-family="Times,serif" font-size="14.00">MyLearnComponent</text>
</g>
<!-- MyLearnComponent&#45;&gt;AppModule -->
<g id="edge11" class="edge">
<title>MyLearnComponent&#45;&gt;AppModule</title>
<path fill="none" stroke="black" d="M3697,-84.8C3697,-102.48 3697,-126.8 3697,-126.8 3697,-126.8 2751.89,-126.8 2751.89,-126.8"/>
<polygon fill="black" stroke="black" points="2751.89,-123.3 2741.89,-126.8 2751.89,-130.3 2751.89,-123.3"/>
</g>
<!-- MyLeftComponent -->
<g id="node12" class="node">
<title>MyLeftComponent</title>
<polygon fill="#ffffb3" stroke="black" points="3612.1,-84.8 3487.9,-84.8 3487.9,-48.8 3612.1,-48.8 3612.1,-84.8"/>
<text text-anchor="middle" x="3550" y="-62.6" font-family="Times,serif" font-size="14.00">MyLeftComponent</text>
</g>
<!-- MyLeftComponent&#45;&gt;AppModule -->
<g id="edge12" class="edge">
<title>MyLeftComponent&#45;&gt;AppModule</title>
<path fill="none" stroke="black" d="M3550,-84.83C3550,-101.86 3550,-124.8 3550,-124.8 3550,-124.8 2751.86,-124.8 2751.86,-124.8"/>
<polygon fill="black" stroke="black" points="2751.86,-121.3 2741.86,-124.8 2751.86,-128.3 2751.86,-121.3"/>
</g>
<!-- MyLoginComponent -->
<g id="node13" class="node">
<title>MyLoginComponent</title>
<polygon fill="#ffffb3" stroke="black" points="3470.22,-84.8 3335.78,-84.8 3335.78,-48.8 3470.22,-48.8 3470.22,-84.8"/>
<text text-anchor="middle" x="3403" y="-62.6" font-family="Times,serif" font-size="14.00">MyLoginComponent</text>
</g>
<!-- MyLoginComponent&#45;&gt;AppModule -->
<g id="edge13" class="edge">
<title>MyLoginComponent&#45;&gt;AppModule</title>
<path fill="none" stroke="black" d="M3403,-84.83C3403,-101.2 3403,-122.8 3403,-122.8 3403,-122.8 2751.87,-122.8 2751.87,-122.8"/>
<polygon fill="black" stroke="black" points="2751.87,-119.3 2741.87,-122.8 2751.87,-126.3 2751.87,-119.3"/>
</g>
<!-- MyModalFormComponent -->
<g id="node14" class="node">
<title>MyModalFormComponent</title>
<polygon fill="#ffffb3" stroke="black" points="3317.67,-84.8 3150.33,-84.8 3150.33,-48.8 3317.67,-48.8 3317.67,-84.8"/>
<text text-anchor="middle" x="3234" y="-62.6" font-family="Times,serif" font-size="14.00">MyModalFormComponent</text>
</g>
<!-- MyModalFormComponent&#45;&gt;AppModule -->
<g id="edge14" class="edge">
<title>MyModalFormComponent&#45;&gt;AppModule</title>
<path fill="none" stroke="black" d="M3234,-85.08C3234,-100.75 3234,-120.8 3234,-120.8 3234,-120.8 2751.9,-120.8 2751.9,-120.8"/>
<polygon fill="black" stroke="black" points="2751.9,-117.3 2741.9,-120.8 2751.9,-124.3 2751.9,-117.3"/>
</g>
<!-- MyObserPromiseComponent -->
<g id="node15" class="node">
<title>MyObserPromiseComponent</title>
<polygon fill="#ffffb3" stroke="black" points="3132.1,-84.8 2951.9,-84.8 2951.9,-48.8 3132.1,-48.8 3132.1,-84.8"/>
<text text-anchor="middle" x="3042" y="-62.6" font-family="Times,serif" font-size="14.00">MyObserPromiseComponent</text>
</g>
<!-- MyObserPromiseComponent&#45;&gt;AppModule -->
<g id="edge15" class="edge">
<title>MyObserPromiseComponent&#45;&gt;AppModule</title>
<path fill="none" stroke="black" d="M3042,-84.99C3042,-99.98 3042,-118.8 3042,-118.8 3042,-118.8 2751.94,-118.8 2751.94,-118.8"/>
<polygon fill="black" stroke="black" points="2751.94,-115.3 2741.94,-118.8 2751.94,-122.3 2751.94,-115.3"/>
</g>
<!-- MyPipeComponent -->
<g id="node16" class="node">
<title>MyPipeComponent</title>
<polygon fill="#ffffb3" stroke="black" points="2933.67,-84.8 2808.33,-84.8 2808.33,-48.8 2933.67,-48.8 2933.67,-84.8"/>
<text text-anchor="middle" x="2871" y="-62.6" font-family="Times,serif" font-size="14.00">MyPipeComponent</text>
</g>
<!-- MyPipeComponent&#45;&gt;AppModule -->
<g id="edge16" class="edge">
<title>MyPipeComponent&#45;&gt;AppModule</title>
<path fill="none" stroke="black" d="M2871,-84.85C2871,-99.17 2871,-116.8 2871,-116.8 2871,-116.8 2751.83,-116.8 2751.83,-116.8"/>
<polygon fill="black" stroke="black" points="2751.83,-113.3 2741.83,-116.8 2751.83,-120.3 2751.83,-113.3"/>
</g>
<!-- MyReactiveFormComponent -->
<g id="node17" class="node">
<title>MyReactiveFormComponent</title>
<polygon fill="#ffffb3" stroke="black" points="2790.09,-84.8 2609.91,-84.8 2609.91,-48.8 2790.09,-48.8 2790.09,-84.8"/>
<text text-anchor="middle" x="2700" y="-62.6" font-family="Times,serif" font-size="14.00">MyReactiveFormComponent</text>
</g>
<!-- MyReactiveFormComponent&#45;&gt;AppModule -->
<g id="edge17" class="edge">
<title>MyReactiveFormComponent&#45;&gt;AppModule</title>
<path fill="none" stroke="black" d="M2700,-84.91C2700,-84.91 2700,-103.79 2700,-103.79"/>
<polygon fill="black" stroke="black" points="2696.5,-103.79 2700,-113.79 2703.5,-103.79 2696.5,-103.79"/>
</g>
<!-- MyRightComponent -->
<g id="node18" class="node">
<title>MyRightComponent</title>
<polygon fill="#ffffb3" stroke="black" points="2591.9,-84.8 2460.1,-84.8 2460.1,-48.8 2591.9,-48.8 2591.9,-84.8"/>
<text text-anchor="middle" x="2526" y="-62.6" font-family="Times,serif" font-size="14.00">MyRightComponent</text>
</g>
<!-- MyRightComponent&#45;&gt;AppModule -->
<g id="edge18" class="edge">
<title>MyRightComponent&#45;&gt;AppModule</title>
<path fill="none" stroke="black" d="M2526,-84.85C2526,-99.17 2526,-116.8 2526,-116.8 2526,-116.8 2648.32,-116.8 2648.32,-116.8"/>
<polygon fill="black" stroke="black" points="2648.32,-120.3 2658.32,-116.8 2648.32,-113.3 2648.32,-120.3"/>
</g>
<!-- MyRxJsComponent -->
<g id="node19" class="node">
<title>MyRxJsComponent</title>
<polygon fill="#ffffb3" stroke="black" points="2442.01,-84.8 2313.99,-84.8 2313.99,-48.8 2442.01,-48.8 2442.01,-84.8"/>
<text text-anchor="middle" x="2378" y="-62.6" font-family="Times,serif" font-size="14.00">MyRxJsComponent</text>
</g>
<!-- MyRxJsComponent&#45;&gt;AppModule -->
<g id="edge19" class="edge">
<title>MyRxJsComponent&#45;&gt;AppModule</title>
<path fill="none" stroke="black" d="M2378,-84.99C2378,-99.98 2378,-118.8 2378,-118.8 2378,-118.8 2648.23,-118.8 2648.23,-118.8"/>
<polygon fill="black" stroke="black" points="2648.23,-122.3 2658.23,-118.8 2648.23,-115.3 2648.23,-122.3"/>
</g>
<!-- MyStudentComponent -->
<g id="node20" class="node">
<title>MyStudentComponent</title>
<polygon fill="#ffffb3" stroke="black" points="2295.56,-84.8 2152.44,-84.8 2152.44,-48.8 2295.56,-48.8 2295.56,-84.8"/>
<text text-anchor="middle" x="2224" y="-62.6" font-family="Times,serif" font-size="14.00">MyStudentComponent</text>
</g>
<!-- MyStudentComponent&#45;&gt;AppModule -->
<g id="edge20" class="edge">
<title>MyStudentComponent&#45;&gt;AppModule</title>
<path fill="none" stroke="black" d="M2224,-85.08C2224,-100.75 2224,-120.8 2224,-120.8 2224,-120.8 2648.18,-120.8 2648.18,-120.8"/>
<polygon fill="black" stroke="black" points="2648.18,-124.3 2658.18,-120.8 2648.18,-117.3 2648.18,-124.3"/>
</g>
<!-- MyUsersComponent -->
<g id="node21" class="node">
<title>MyUsersComponent</title>
<polygon fill="#ffffb3" stroke="black" points="2134.16,-84.8 2001.84,-84.8 2001.84,-48.8 2134.16,-48.8 2134.16,-84.8"/>
<text text-anchor="middle" x="2068" y="-62.6" font-family="Times,serif" font-size="14.00">MyUsersComponent</text>
</g>
<!-- MyUsersComponent&#45;&gt;AppModule -->
<g id="edge21" class="edge">
<title>MyUsersComponent&#45;&gt;AppModule</title>
<path fill="none" stroke="black" d="M2068,-84.83C2068,-101.2 2068,-122.8 2068,-122.8 2068,-122.8 2648.04,-122.8 2648.04,-122.8"/>
<polygon fill="black" stroke="black" points="2648.04,-126.3 2658.04,-122.8 2648.04,-119.3 2648.04,-126.3"/>
</g>
<!-- MyViewchildComponent -->
<g id="node22" class="node">
<title>MyViewchildComponent</title>
<polygon fill="#ffffb3" stroke="black" points="1983.6,-84.8 1824.4,-84.8 1824.4,-48.8 1983.6,-48.8 1983.6,-84.8"/>
<text text-anchor="middle" x="1904" y="-62.6" font-family="Times,serif" font-size="14.00">MyViewchildComponent</text>
</g>
<!-- MyViewchildComponent&#45;&gt;AppModule -->
<g id="edge22" class="edge">
<title>MyViewchildComponent&#45;&gt;AppModule</title>
<path fill="none" stroke="black" d="M1904,-84.83C1904,-101.86 1904,-124.8 1904,-124.8 1904,-124.8 2648.32,-124.8 2648.32,-124.8"/>
<polygon fill="black" stroke="black" points="2648.32,-128.3 2658.32,-124.8 2648.32,-121.3 2648.32,-128.3"/>
</g>
<!-- NgrxDemoComponent -->
<g id="node23" class="node">
<title>NgrxDemoComponent</title>
<polygon fill="#ffffb3" stroke="black" points="1806.32,-84.8 1661.68,-84.8 1661.68,-48.8 1806.32,-48.8 1806.32,-84.8"/>
<text text-anchor="middle" x="1734" y="-62.6" font-family="Times,serif" font-size="14.00">NgrxDemoComponent</text>
</g>
<!-- NgrxDemoComponent&#45;&gt;AppModule -->
<g id="edge23" class="edge">
<title>NgrxDemoComponent&#45;&gt;AppModule</title>
<path fill="none" stroke="black" d="M1734,-84.8C1734,-102.48 1734,-126.8 1734,-126.8 1734,-126.8 2648.18,-126.8 2648.18,-126.8"/>
<polygon fill="black" stroke="black" points="2648.18,-130.3 2658.18,-126.8 2648.18,-123.3 2648.18,-130.3"/>
</g>
<!-- ReactiveValidationComponent -->
<g id="node24" class="node">
<title>ReactiveValidationComponent</title>
<polygon fill="#ffffb3" stroke="black" points="1643.9,-84.8 1454.1,-84.8 1454.1,-48.8 1643.9,-48.8 1643.9,-84.8"/>
<text text-anchor="middle" x="1549" y="-62.6" font-family="Times,serif" font-size="14.00">ReactiveValidationComponent</text>
</g>
<!-- ReactiveValidationComponent&#45;&gt;AppModule -->
<g id="edge24" class="edge">
<title>ReactiveValidationComponent&#45;&gt;AppModule</title>
<path fill="none" stroke="black" d="M1549,-85.07C1549,-103.36 1549,-128.8 1549,-128.8 1549,-128.8 2648.01,-128.8 2648.01,-128.8"/>
<polygon fill="black" stroke="black" points="2648.01,-132.3 2658.01,-128.8 2648.01,-125.3 2648.01,-132.3"/>
</g>
<!-- RegisterComponent -->
<g id="node25" class="node">
<title>RegisterComponent</title>
<polygon fill="#ffffb3" stroke="black" points="1435.99,-84.8 1308.01,-84.8 1308.01,-48.8 1435.99,-48.8 1435.99,-84.8"/>
<text text-anchor="middle" x="1372" y="-62.6" font-family="Times,serif" font-size="14.00">RegisterComponent</text>
</g>
<!-- RegisterComponent&#45;&gt;AppModule -->
<g id="edge25" class="edge">
<title>RegisterComponent&#45;&gt;AppModule</title>
<path fill="none" stroke="black" d="M1372,-84.97C1372,-103.89 1372,-130.8 1372,-130.8 1372,-130.8 2648.06,-130.8 2648.06,-130.8"/>
<polygon fill="black" stroke="black" points="2648.06,-134.3 2658.06,-130.8 2648.06,-127.3 2648.06,-134.3"/>
</g>
<!-- SubjectDemoComponent -->
<g id="node26" class="node">
<title>SubjectDemoComponent</title>
<polygon fill="#ffffb3" stroke="black" points="1289.54,-84.8 1132.46,-84.8 1132.46,-48.8 1289.54,-48.8 1289.54,-84.8"/>
<text text-anchor="middle" x="1211" y="-62.6" font-family="Times,serif" font-size="14.00">SubjectDemoComponent</text>
</g>
<!-- SubjectDemoComponent&#45;&gt;AppModule -->
<g id="edge26" class="edge">
<title>SubjectDemoComponent&#45;&gt;AppModule</title>
<path fill="none" stroke="black" d="M1211,-85.11C1211,-104.95 1211,-133.8 1211,-133.8 1211,-133.8 2648.23,-133.8 2648.23,-133.8"/>
<polygon fill="black" stroke="black" points="2648.23,-137.3 2658.23,-133.8 2648.23,-130.3 2648.23,-137.3"/>
</g>
<!-- SubscriptionComponent -->
<g id="node27" class="node">
<title>SubscriptionComponent</title>
<polygon fill="#ffffb3" stroke="black" points="1114.11,-84.8 961.89,-84.8 961.89,-48.8 1114.11,-48.8 1114.11,-84.8"/>
<text text-anchor="middle" x="1038" y="-62.6" font-family="Times,serif" font-size="14.00">SubscriptionComponent</text>
</g>
<!-- SubscriptionComponent&#45;&gt;AppModule -->
<g id="edge27" class="edge">
<title>SubscriptionComponent&#45;&gt;AppModule</title>
<path fill="none" stroke="black" d="M1038,-84.93C1038,-105.37 1038,-135.8 1038,-135.8 1038,-135.8 2648.09,-135.8 2648.09,-135.8"/>
<polygon fill="black" stroke="black" points="2648.09,-139.3 2658.09,-135.8 2648.09,-132.3 2648.09,-139.3"/>
</g>
<!-- AppComponent  -->
<g id="node30" class="node">
<title>AppComponent </title>
<polygon fill="#80b1d3" stroke="black" points="2754.44,-214.8 2645.56,-214.8 2645.56,-178.8 2754.44,-178.8 2754.44,-214.8"/>
<text text-anchor="middle" x="2700" y="-192.6" font-family="Times,serif" font-size="14.00">AppComponent </text>
</g>
<!-- AppModule&#45;&gt;AppComponent  -->
<g id="edge29" class="edge">
<title>AppModule&#45;&gt;AppComponent </title>
<path fill="none" stroke="black" stroke-dasharray="1,5" d="M2700,-149.91C2700,-149.91 2700,-168.79 2700,-168.79"/>
<polygon fill="black" stroke="black" points="2696.5,-168.79 2700,-178.79 2703.5,-168.79 2696.5,-168.79"/>
</g>
<!-- AppRoutingModule -->
<g id="node29" class="node">
<title>AppRoutingModule</title>
<polygon fill="#8dd3c7" stroke="black" points="938.28,-84.8 935.28,-88.8 914.28,-88.8 911.28,-84.8 809.72,-84.8 809.72,-48.8 938.28,-48.8 938.28,-84.8"/>
<text text-anchor="middle" x="874" y="-62.6" font-family="Times,serif" font-size="14.00">AppRoutingModule</text>
</g>
<!-- AppRoutingModule&#45;&gt;AppModule -->
<g id="edge28" class="edge">
<title>AppRoutingModule&#45;&gt;AppModule</title>
<path fill="none" stroke="black" d="M874,-85.08C874,-106.12 874,-137.8 874,-137.8 874,-137.8 2647.99,-137.8 2647.99,-137.8"/>
<polygon fill="black" stroke="black" points="2647.99,-141.3 2657.99,-137.8 2647.99,-134.3 2647.99,-141.3"/>
</g>
<!-- ConfigService -->
<g id="node31" class="node">
<title>ConfigService</title>
<ellipse fill="#fdb462" stroke="black" cx="719" cy="-66.8" rx="66.64" ry="18"/>
<text text-anchor="middle" x="719" y="-62.6" font-family="Times,serif" font-size="14.00">ConfigService</text>
</g>
<!-- ConfigService&#45;&gt;AppModule -->
<g id="edge30" class="edge">
<title>ConfigService&#45;&gt;AppModule</title>
<path fill="none" stroke="black" d="M719,-84.84C719,-106.46 719,-139.8 719,-139.8 719,-139.8 2648.17,-139.8 2648.17,-139.8"/>
<polygon fill="black" stroke="black" points="2648.17,-143.3 2658.17,-139.8 2648.17,-136.3 2648.17,-143.3"/>
</g>
<!-- DataAPIService -->
<g id="node32" class="node">
<title>DataAPIService</title>
<ellipse fill="#fdb462" stroke="black" cx="560" cy="-66.8" rx="73.57" ry="18"/>
<text text-anchor="middle" x="560" y="-62.6" font-family="Times,serif" font-size="14.00">DataAPIService</text>
</g>
<!-- DataAPIService&#45;&gt;AppModule -->
<g id="edge31" class="edge">
<title>DataAPIService&#45;&gt;AppModule</title>
<path fill="none" stroke="black" d="M560,-84.96C560,-107.15 560,-141.8 560,-141.8 560,-141.8 2648.21,-141.8 2648.21,-141.8"/>
<polygon fill="black" stroke="black" points="2648.21,-145.3 2658.21,-141.8 2648.21,-138.3 2648.21,-145.3"/>
</g>
<!-- MemAPIService -->
<g id="node33" class="node">
<title>MemAPIService</title>
<ellipse fill="#fdb462" stroke="black" cx="392" cy="-66.8" rx="75.88" ry="18"/>
<text text-anchor="middle" x="392" y="-62.6" font-family="Times,serif" font-size="14.00">MemAPIService</text>
</g>
<!-- MemAPIService&#45;&gt;AppModule -->
<g id="edge32" class="edge">
<title>MemAPIService&#45;&gt;AppModule</title>
<path fill="none" stroke="black" d="M392,-85.05C392,-107.82 392,-143.8 392,-143.8 392,-143.8 2647.97,-143.8 2647.97,-143.8"/>
<polygon fill="black" stroke="black" points="2647.97,-147.3 2657.97,-143.8 2647.97,-140.3 2647.97,-147.3"/>
</g>
<!-- loginService -->
<g id="node34" class="node">
<title>loginService</title>
<ellipse fill="#fdb462" stroke="black" cx="238" cy="-66.8" rx="59.69" ry="18"/>
<text text-anchor="middle" x="238" y="-62.6" font-family="Times,serif" font-size="14.00">loginService</text>
</g>
<!-- loginService&#45;&gt;AppModule -->
<g id="edge33" class="edge">
<title>loginService&#45;&gt;AppModule</title>
<path fill="none" stroke="black" d="M238,-85.12C238,-108.46 238,-145.8 238,-145.8 238,-145.8 2648.3,-145.8 2648.3,-145.8"/>
<polygon fill="black" stroke="black" points="2648.3,-149.3 2658.3,-145.8 2648.3,-142.3 2648.3,-149.3"/>
</g>
<!-- studentService -->
<g id="node35" class="node">
<title>studentService</title>
<ellipse fill="#fdb462" stroke="black" cx="92" cy="-66.8" rx="67.78" ry="18"/>
<text text-anchor="middle" x="92" y="-62.6" font-family="Times,serif" font-size="14.00">studentService</text>
</g>
<!-- studentService&#45;&gt;AppModule -->
<g id="edge34" class="edge">
<title>studentService&#45;&gt;AppModule</title>
<path fill="none" stroke="black" d="M92,-85.18C92,-109.08 92,-147.8 92,-147.8 92,-147.8 2648.24,-147.8 2648.24,-147.8"/>
<polygon fill="black" stroke="black" points="2648.24,-151.3 2658.24,-147.8 2648.24,-144.3 2648.24,-151.3"/>
</g>
</g>
</svg>
